#N canvas 1 1 1348 667 12;
#X obj 604 16 r solucion;
#X obj 607 116 hsl 128 15 379 1000 0 0 empty empty empty -2 -8 0 10
-204800 -1 -1 0 1;
#X obj 604 85 line;
#X floatatom 604 142 5 0 0 0 - - -;
#X text 378 55 De 379 a 1000 en 9:17 minutos;
#X obj 66 184 &&;
#X obj 66 238 tgl 15 0 empty empty empty 17 7 0 10 -261234 -1 -1 0
1;
#X msg 99 494 \$1 200 200;
#X obj 99 522 makenote;
#X obj 99 550 noteout;
#X obj 18 418 bng 15 250 50 0 empty empty empty 17 7 0 10 -262144 -1
-1;
#X obj 52 417 bng 15 250 50 0 empty empty empty 17 7 0 10 -262144 -1
-1;
#X obj 84 417 bng 15 250 50 0 empty empty empty 17 7 0 10 -262144 -1
-1;
#X obj 117 416 bng 15 250 50 0 empty empty empty 17 7 0 10 -262144
-1 -1;
#X obj 160 417 bng 15 250 50 0 empty empty empty 17 7 0 10 -262144
-1 -1;
#X obj 66 214 change;
#X msg 80 438 75;
#X obj 66 381 select 0 1 2 3 4 5;
#X obj 51 153 > 379;
#X obj 66 287 t b;
#X floatatom 66 347 5 0 0 0 - - -;
#X obj 66 318 random 6;
#X obj 66 256 metro 250;
#X msg 198 435 72;
#X obj 199 417 bng 15 250 50 0 empty empty empty 17 7 0 10 -262144
-1 -1;
#X obj 316 174 &&;
#X floatatom 316 356 5 0 0 0 - - -;
#X obj 316 221 tgl 15 0 empty empty empty 17 7 0 10 -261234 -1 -1 0
1;
#X obj 316 393 select 0 1 2 3 4 5 6 7 8;
#X msg 256 449 76;
#X msg 330 450 75;
#X msg 550 447 68;
#X msg 349 506 \$1 200 200;
#X obj 349 534 makenote;
#X obj 349 562 noteout;
#X obj 268 430 bng 15 250 50 0 empty empty empty 17 7 0 10 -262144
-1 -1;
#X obj 302 429 bng 15 250 50 0 empty empty empty 17 7 0 10 -262144
-1 -1;
#X obj 334 429 bng 15 250 50 0 empty empty empty 17 7 0 10 -262144
-1 -1;
#X obj 367 428 bng 15 250 50 0 empty empty empty 17 7 0 10 -262144
-1 -1;
#X obj 410 429 bng 15 250 50 0 empty empty empty 17 7 0 10 -262144
-1 -1;
#X obj 442 429 bng 15 250 50 0 empty empty empty 17 7 0 10 -262144
-1 -1;
#X obj 476 429 bng 15 250 50 0 empty empty empty 17 7 0 10 -262144
-1 -1;
#X obj 514 429 bng 15 250 50 0 empty empty empty 17 7 0 10 -262144
-1 -1;
#X obj 553 428 bng 15 250 50 0 empty empty empty 17 7 0 10 -262144
-1 -1;
#X obj 316 197 change;
#X obj 316 246 metro 250;
#X obj 316 281 t b;
#X obj 316 323 random 9;
#X floatatom 620 487 5 0 0 0 - - -;
#X msg 496 577 69;
#X msg 541 577 66;
#X msg 627 577 76;
#X msg 706 576 72;
#X obj 663 683 makenote;
#X obj 663 722 noteout;
#X msg 749 575 70;
#X obj 620 527 select 0 1 2 3 4 5 6 7 8 9 10 11;
#X msg 789 575 64;
#X msg 825 575 62;
#X msg 956 573 78;
#X msg 585 576 77;
#X obj 497 560 bng 15 250 50 0 empty empty empty 17 7 0 10 -262144
-1 -1;
#X obj 543 560 bng 15 250 50 0 empty empty empty 17 7 0 10 -262144
-1 -1;
#X obj 585 559 bng 15 250 50 0 empty empty empty 17 7 0 10 -262144
-1 -1;
#X obj 627 559 bng 15 250 50 0 empty empty empty 17 7 0 10 -262144
-1 -1;
#X obj 668 558 bng 15 250 50 0 empty empty empty 17 7 0 10 -262144
-1 -1;
#X obj 704 558 bng 15 250 50 0 empty empty empty 17 7 0 10 -262144
-1 -1;
#X obj 746 558 bng 15 250 50 0 empty empty empty 17 7 0 10 -262144
-1 -1;
#X obj 788 558 bng 15 250 50 0 empty empty empty 17 7 0 10 -262144
-1 -1;
#X obj 825 558 bng 15 250 50 0 empty empty empty 17 7 0 10 -262144
-1 -1;
#X obj 868 558 bng 15 250 50 0 empty empty empty 17 7 0 10 -262144
-1 -1;
#X obj 911 557 bng 15 250 50 0 empty empty empty 17 7 0 10 -262144
-1 -1;
#X obj 955 556 bng 15 250 50 0 empty empty empty 17 7 0 10 -262144
-1 -1;
#X obj 620 358 tgl 15 0 metro empty empty 17 7 0 10 -261234 -1 -1 0
1;
#X obj 620 309 &&;
#X obj 620 333 change;
#X msg 911 574 79;
#X msg 668 576 68;
#X msg 869 574 75;
#X obj 620 413 t b;
#X obj 620 453 random 12;
#X obj 620 381 metro;
#X obj 731 400 s duracion;
#X obj 734 366 hsl 128 15 200 400 0 0 empty empty Metro -2 -8 0 10
-262144 -1 -1 0 1;
#X text 711 379 200 ms;
#X obj 731 281 line;
#X obj 731 310 t f f;
#X floatatom 731 336 5 0 0 0 - - -;
#X msg 820 260 200 2000;
#X obj 748 224 tgl 15 0 empty metro empty 17 7 0 10 -262130 -1 -1 0
1;
#X text 816 380 400 ms;
#X obj 800 331 sel 400 200;
#X msg 748 245 400 2000;
#X msg 663 652 \$1 \$2 200;
#X obj 663 623 pack f f;
#X obj 735 622 r duracion;
#X msg 1022 516 \$1 200 200;
#X obj 1022 552 makenote;
#X obj 1022 583 noteout;
#X obj 979 396 select 0 1 2 3 4 5 6 7 8 9 10 11;
#X msg 1148 444 64;
#X msg 1184 444 62;
#X msg 1307 444 78;
#X obj 856 429 bng 15 250 50 0 empty empty empty 17 7 0 10 -262144
-1 -1;
#X obj 902 429 bng 15 250 50 0 empty empty empty 17 7 0 10 -262144
-1 -1;
#X obj 944 428 bng 15 250 50 0 empty empty empty 17 7 0 10 -262144
-1 -1;
#X obj 986 428 bng 15 250 50 0 empty empty empty 17 7 0 10 -262144
-1 -1;
#X obj 1027 427 bng 15 250 50 0 empty empty empty 17 7 0 10 -262144
-1 -1;
#X obj 1063 427 bng 15 250 50 0 empty empty empty 17 7 0 10 -262144
-1 -1;
#X obj 1105 427 bng 15 250 50 0 empty empty empty 17 7 0 10 -262144
-1 -1;
#X obj 1147 427 bng 15 250 50 0 empty empty empty 17 7 0 10 -262144
-1 -1;
#X obj 1184 427 bng 15 250 50 0 empty empty empty 17 7 0 10 -262144
-1 -1;
#X obj 1227 427 bng 15 250 50 0 empty empty empty 17 7 0 10 -262144
-1 -1;
#X obj 1270 426 bng 15 250 50 0 empty empty empty 17 7 0 10 -262144
-1 -1;
#X obj 1306 427 bng 15 250 50 0 empty empty empty 17 7 0 10 -262144
-1 -1;
#X msg 855 446 79;
#X msg 900 446 69;
#X msg 944 445 70;
#X msg 986 446 64;
#X msg 1027 445 72;
#X msg 1065 445 80;
#X msg 1108 444 60;
#X msg 1228 443 80;
#X msg 1270 443 80;
#X obj 980 184 &&;
#X floatatom 980 366 5 0 0 0 - - -;
#X obj 980 231 tgl 15 0 empty empty empty 17 7 0 10 -261234 -1 -1 0
1;
#X obj 980 207 change;
#X obj 980 256 metro 250;
#X obj 980 291 t b;
#X obj 1364 290 &&;
#X obj 1364 353 tgl 15 0 metro2 empty empty 17 7 0 10 -261234 -1 -1
0 1;
#X obj 1350 529 select 0 1 2 3 4 5 6 7 8;
#X msg 1441 584 66;
#X obj 1383 678 makenote;
#X obj 1383 706 noteout;
#X obj 1301 565 bng 15 250 50 0 empty empty empty 17 7 0 10 -262144
-1 -1;
#X obj 1336 565 bng 15 250 50 0 empty empty empty 17 7 0 10 -262144
-1 -1;
#X obj 1368 565 bng 15 250 50 0 empty empty empty 17 7 0 10 -262144
-1 -1;
#X obj 1401 564 bng 15 250 50 0 empty empty empty 17 7 0 10 -262144
-1 -1;
#X obj 1444 565 bng 15 250 50 0 empty empty empty 17 7 0 10 -262144
-1 -1;
#X obj 1476 565 bng 15 250 50 0 empty empty empty 17 7 0 10 -262144
-1 -1;
#X obj 1510 565 bng 15 250 50 0 empty empty empty 17 7 0 10 -262144
-1 -1;
#X obj 1548 565 bng 15 250 50 0 empty empty empty 17 7 0 10 -262144
-1 -1;
#X obj 1587 564 bng 15 250 50 0 empty empty empty 17 7 0 10 -262144
-1 -1;
#X obj 1364 313 change;
#X msg 1289 584 68;
#X msg 1325 586 70;
#X msg 1364 586 64;
#X msg 1404 585 63;
#X msg 1476 584 69;
#X msg 1511 584 75;
#X msg 1549 583 60;
#X msg 1584 583 76;
#X obj 1497 417 hsl 128 15 200 300 0 0 empty empty Metro -2 -8 0 10
-262144 -1 -1 0 1;
#X obj 1494 332 line;
#X obj 1494 361 t f f;
#X floatatom 1494 387 5 0 0 0 - - -;
#X obj 1511 275 tgl 15 0 empty metro2 empty 17 7 0 10 -262130 -1 -1
0 1;
#X floatatom 1364 486 5 0 0 0 - - -;
#X obj 1364 412 t b;
#X obj 1364 380 metro;
#X obj 980 333 random 12;
#X msg 1383 652 \$1 \$2 200;
#X obj 1383 623 pack f f;
#X obj 1494 451 s duracion2;
#X obj 1455 622 r duracion2;
#X obj 1364 452 random 9;
#X obj 104 154 <= 479;
#X obj 289 137 >= 480;
#X obj 341 138 <= 579;
#X obj 597 277 >= 580;
#X obj 653 277 <= 679;
#X obj 951 147 >= 680;
#X obj 1005 148 <= 779;
#X obj 1329 264 >= 780;
#X obj 1393 265 <= 879;
#X obj 473 179 s sec6;
#X obj 226 617 r sec6;
#X obj 192 650 >= 880;
#X obj 244 650 <= 1000;
#X floatatom 194 913 5 0 0 0 - - -;
#X msg 284 1044 76;
#X msg 363 1043 72;
#X obj 320 1150 makenote;
#X obj 320 1189 noteout;
#X msg 406 1042 70;
#X msg 446 1042 64;
#X msg 482 1042 62;
#X msg 242 1043 77;
#X obj 242 1026 bng 15 250 50 0 empty empty empty 17 7 0 10 -262144
-1 -1;
#X obj 284 1026 bng 15 250 50 0 empty empty empty 17 7 0 10 -262144
-1 -1;
#X obj 325 1025 bng 15 250 50 0 empty empty empty 17 7 0 10 -262144
-1 -1;
#X obj 361 1025 bng 15 250 50 0 empty empty empty 17 7 0 10 -262144
-1 -1;
#X obj 403 1025 bng 15 250 50 0 empty empty empty 17 7 0 10 -262144
-1 -1;
#X obj 445 1025 bng 15 250 50 0 empty empty empty 17 7 0 10 -262144
-1 -1;
#X obj 482 1025 bng 15 250 50 0 empty empty empty 17 7 0 10 -262144
-1 -1;
#X obj 194 784 tgl 15 0 metro empty empty 17 7 0 10 -261234 -1 -1 0
1;
#X obj 194 735 &&;
#X obj 194 759 change;
#X msg 325 1043 68;
#X obj 194 839 t b;
#X obj 194 807 metro;
#X obj 305 826 s duracion;
#X obj 308 792 hsl 128 15 200 300 0 0 empty empty Metro -2 -8 0 10
-262144 -1 -1 0 1;
#X obj 305 707 line;
#X obj 305 736 t f f;
#X floatatom 305 762 5 0 0 0 - - -;
#X obj 322 650 tgl 15 0 empty metro empty 17 7 0 10 -262130 -1 -1 0
1;
#X msg 320 1119 \$1 \$2 200;
#X obj 320 1090 pack f f;
#X obj 392 1089 r duracion;
#X msg 159 1043 69;
#X msg 204 1043 66;
#X obj 175 1024 bng 15 250 50 0 empty empty empty 17 7 0 10 -262144
-1 -1;
#X obj 206 1026 bng 15 250 50 0 empty empty empty 17 7 0 10 -262144
-1 -1;
#X obj 194 879 random 16;
#X msg 610 1041 78;
#X obj 528 1023 bng 15 250 50 0 empty empty empty 17 7 0 10 -262144
-1 -1;
#X obj 572 1023 bng 15 250 50 0 empty empty empty 17 7 0 10 -262144
-1 -1;
#X obj 609 1024 bng 15 250 50 0 empty empty empty 17 7 0 10 -262144
-1 -1;
#X msg 567 1041 79;
#X msg 522 1041 75;
#X msg 655 1040 60;
#X msg 696 1040 70;
#X msg 735 1040 65;
#X msg 772 1040 76;
#X obj 659 1023 bng 15 250 50 0 empty empty empty 17 7 0 10 -262144
-1 -1;
#X obj 698 1023 bng 15 250 50 0 empty empty empty 17 7 0 10 -262144
-1 -1;
#X obj 735 1022 bng 15 250 50 0 empty empty empty 17 7 0 10 -262144
-1 -1;
#X obj 774 1022 bng 15 250 50 0 empty empty empty 17 7 0 10 -262144
-1 -1;
#X obj 194 953 select 0 1 2 3 4 5 6 7 8 9 10 11 12 13 14 15, f 84
;
#X obj 374 757 sel 300 200;
#X text 285 805 200 ms;
#X text 390 806 300 ms;
#X msg 322 671 300 2500;
#X msg 394 686 200 2500;
#X msg 604 55 379 \, 1000 435000;
#X msg 6 438 80;
#X msg 43 437 64;
#X msg 120 437 69;
#X msg 157 436 66;
#X msg 291 450 66;
#X msg 370 449 78;
#X msg 407 448 64;
#X msg 442 448 80;
#X msg 477 448 62;
#X msg 515 447 75;
#X msg 1511 296 300 2000;
#X msg 1583 311 200 2000;
#X obj 1563 382 sel 300 200;
#X text 1474 430 200 ms;
#X text 1587 430 300 ms;
#X msg 765 64 1000 \, 379 5;
#X connect 0 0 237 0;
#X connect 1 0 3 0;
#X connect 2 0 1 0;
#X connect 3 0 169 0;
#X connect 3 0 170 0;
#X connect 3 0 171 0;
#X connect 3 0 172 0;
#X connect 3 0 173 0;
#X connect 3 0 174 0;
#X connect 3 0 175 0;
#X connect 3 0 176 0;
#X connect 3 0 177 0;
#X connect 3 0 168 0;
#X connect 3 0 18 0;
#X connect 5 0 15 0;
#X connect 6 0 22 0;
#X connect 7 0 8 0;
#X connect 8 0 9 0;
#X connect 8 1 9 1;
#X connect 15 0 6 0;
#X connect 16 0 7 0;
#X connect 17 0 238 0;
#X connect 17 0 10 0;
#X connect 17 1 239 0;
#X connect 17 1 11 0;
#X connect 17 2 16 0;
#X connect 17 2 12 0;
#X connect 17 3 240 0;
#X connect 17 3 13 0;
#X connect 17 4 241 0;
#X connect 17 4 14 0;
#X connect 17 5 23 0;
#X connect 17 5 24 0;
#X connect 18 0 5 0;
#X connect 19 0 21 0;
#X connect 20 0 17 0;
#X connect 21 0 20 0;
#X connect 22 0 19 0;
#X connect 23 0 7 0;
#X connect 25 0 44 0;
#X connect 26 0 28 0;
#X connect 27 0 45 0;
#X connect 28 0 35 0;
#X connect 28 0 29 0;
#X connect 28 1 242 0;
#X connect 28 1 36 0;
#X connect 28 2 30 0;
#X connect 28 2 37 0;
#X connect 28 3 243 0;
#X connect 28 3 38 0;
#X connect 28 4 244 0;
#X connect 28 4 39 0;
#X connect 28 5 245 0;
#X connect 28 5 40 0;
#X connect 28 6 246 0;
#X connect 28 6 41 0;
#X connect 28 7 42 0;
#X connect 28 7 247 0;
#X connect 28 8 43 0;
#X connect 28 8 31 0;
#X connect 29 0 32 0;
#X connect 30 0 32 0;
#X connect 31 0 32 0;
#X connect 32 0 33 0;
#X connect 33 0 34 0;
#X connect 33 1 34 1;
#X connect 44 0 27 0;
#X connect 45 0 46 0;
#X connect 46 0 47 0;
#X connect 47 0 26 0;
#X connect 48 0 56 0;
#X connect 49 0 94 0;
#X connect 50 0 94 0;
#X connect 51 0 94 0;
#X connect 52 0 94 0;
#X connect 53 0 54 0;
#X connect 53 1 54 1;
#X connect 55 0 94 0;
#X connect 56 0 49 0;
#X connect 56 0 61 0;
#X connect 56 1 50 0;
#X connect 56 1 62 0;
#X connect 56 2 63 0;
#X connect 56 2 60 0;
#X connect 56 3 51 0;
#X connect 56 3 64 0;
#X connect 56 4 77 0;
#X connect 56 4 65 0;
#X connect 56 5 52 0;
#X connect 56 5 66 0;
#X connect 56 6 55 0;
#X connect 56 6 67 0;
#X connect 56 7 57 0;
#X connect 56 7 68 0;
#X connect 56 8 58 0;
#X connect 56 8 69 0;
#X connect 56 9 70 0;
#X connect 56 9 78 0;
#X connect 56 10 71 0;
#X connect 56 10 76 0;
#X connect 56 11 59 0;
#X connect 56 11 72 0;
#X connect 57 0 94 0;
#X connect 58 0 94 0;
#X connect 59 0 94 0;
#X connect 60 0 94 0;
#X connect 73 0 81 0;
#X connect 74 0 75 0;
#X connect 75 0 73 0;
#X connect 76 0 94 0;
#X connect 77 0 94 0;
#X connect 78 0 94 0;
#X connect 79 0 80 0;
#X connect 80 0 48 0;
#X connect 81 0 79 0;
#X connect 83 0 82 0;
#X connect 83 0 81 1;
#X connect 85 0 86 0;
#X connect 86 0 87 0;
#X connect 86 1 91 0;
#X connect 87 0 83 0;
#X connect 88 0 85 0;
#X connect 89 0 92 0;
#X connect 91 0 88 0;
#X connect 91 1 92 0;
#X connect 92 0 85 0;
#X connect 93 0 53 0;
#X connect 94 0 93 0;
#X connect 95 0 94 1;
#X connect 96 0 97 0;
#X connect 97 0 98 0;
#X connect 97 1 98 1;
#X connect 99 0 115 0;
#X connect 99 0 103 0;
#X connect 99 1 116 0;
#X connect 99 1 104 0;
#X connect 99 2 117 0;
#X connect 99 2 105 0;
#X connect 99 3 118 0;
#X connect 99 3 106 0;
#X connect 99 4 119 0;
#X connect 99 4 107 0;
#X connect 99 5 108 0;
#X connect 99 5 120 0;
#X connect 99 6 121 0;
#X connect 99 6 109 0;
#X connect 99 7 100 0;
#X connect 99 7 110 0;
#X connect 99 8 101 0;
#X connect 99 8 111 0;
#X connect 99 9 122 0;
#X connect 99 9 112 0;
#X connect 99 10 123 0;
#X connect 99 10 113 0;
#X connect 99 11 102 0;
#X connect 99 11 114 0;
#X connect 100 0 96 0;
#X connect 101 0 96 0;
#X connect 102 0 96 0;
#X connect 115 0 96 0;
#X connect 116 0 96 0;
#X connect 117 0 96 0;
#X connect 118 0 96 0;
#X connect 119 0 96 0;
#X connect 120 0 96 0;
#X connect 121 0 96 0;
#X connect 122 0 96 0;
#X connect 123 0 96 0;
#X connect 124 0 127 0;
#X connect 125 0 99 0;
#X connect 126 0 128 0;
#X connect 127 0 126 0;
#X connect 128 0 129 0;
#X connect 129 0 162 0;
#X connect 130 0 145 0;
#X connect 131 0 161 0;
#X connect 132 0 146 0;
#X connect 132 0 136 0;
#X connect 132 1 147 0;
#X connect 132 1 137 0;
#X connect 132 2 148 0;
#X connect 132 2 138 0;
#X connect 132 3 149 0;
#X connect 132 3 139 0;
#X connect 132 4 133 0;
#X connect 132 4 140 0;
#X connect 132 5 150 0;
#X connect 132 5 141 0;
#X connect 132 6 151 0;
#X connect 132 6 142 0;
#X connect 132 7 152 0;
#X connect 132 7 143 0;
#X connect 132 8 153 0;
#X connect 132 8 144 0;
#X connect 133 0 164 0;
#X connect 134 0 135 0;
#X connect 134 1 135 1;
#X connect 145 0 131 0;
#X connect 146 0 164 0;
#X connect 147 0 164 0;
#X connect 148 0 164 0;
#X connect 149 0 164 0;
#X connect 150 0 164 0;
#X connect 151 0 164 0;
#X connect 152 0 164 0;
#X connect 153 0 164 0;
#X connect 154 0 161 1;
#X connect 154 0 165 0;
#X connect 155 0 156 0;
#X connect 156 0 157 0;
#X connect 156 1 250 0;
#X connect 157 0 154 0;
#X connect 158 0 248 0;
#X connect 159 0 132 0;
#X connect 160 0 167 0;
#X connect 161 0 160 0;
#X connect 162 0 125 0;
#X connect 163 0 134 0;
#X connect 164 0 163 0;
#X connect 166 0 164 1;
#X connect 167 0 159 0;
#X connect 168 0 5 1;
#X connect 169 0 25 0;
#X connect 170 0 25 1;
#X connect 171 0 74 0;
#X connect 172 0 74 1;
#X connect 173 0 124 0;
#X connect 174 0 124 1;
#X connect 175 0 130 0;
#X connect 176 0 130 1;
#X connect 178 0 179 0;
#X connect 178 0 180 0;
#X connect 179 0 198 0;
#X connect 180 0 198 1;
#X connect 181 0 231 0;
#X connect 182 0 210 0;
#X connect 183 0 210 0;
#X connect 184 0 185 0;
#X connect 184 1 185 1;
#X connect 186 0 210 0;
#X connect 187 0 210 0;
#X connect 188 0 210 0;
#X connect 189 0 210 0;
#X connect 197 0 202 0;
#X connect 198 0 199 0;
#X connect 199 0 197 0;
#X connect 200 0 210 0;
#X connect 201 0 216 0;
#X connect 202 0 201 0;
#X connect 204 0 203 0;
#X connect 204 0 202 1;
#X connect 205 0 206 0;
#X connect 206 0 207 0;
#X connect 206 1 232 0;
#X connect 207 0 204 0;
#X connect 208 0 235 0;
#X connect 209 0 184 0;
#X connect 210 0 209 0;
#X connect 211 0 210 1;
#X connect 216 0 181 0;
#X connect 217 0 210 0;
#X connect 221 0 210 0;
#X connect 222 0 210 0;
#X connect 223 0 210 0;
#X connect 224 0 210 0;
#X connect 225 0 210 0;
#X connect 226 0 210 0;
#X connect 231 0 214 0;
#X connect 231 0 212 0;
#X connect 231 1 215 0;
#X connect 231 1 213 0;
#X connect 231 2 190 0;
#X connect 231 2 189 0;
#X connect 231 3 182 0;
#X connect 231 3 191 0;
#X connect 231 4 200 0;
#X connect 231 4 192 0;
#X connect 231 5 183 0;
#X connect 231 5 193 0;
#X connect 231 6 186 0;
#X connect 231 6 194 0;
#X connect 231 7 187 0;
#X connect 231 7 195 0;
#X connect 231 8 188 0;
#X connect 231 8 196 0;
#X connect 231 9 222 0;
#X connect 231 9 218 0;
#X connect 231 10 221 0;
#X connect 231 10 219 0;
#X connect 231 11 217 0;
#X connect 231 11 220 0;
#X connect 231 12 223 0;
#X connect 231 12 227 0;
#X connect 231 13 224 0;
#X connect 231 13 228 0;
#X connect 231 14 225 0;
#X connect 231 14 229 0;
#X connect 231 15 226 0;
#X connect 231 15 230 0;
#X connect 232 0 236 0;
#X connect 232 1 235 0;
#X connect 235 0 205 0;
#X connect 236 0 205 0;
#X connect 237 0 2 0;
#X connect 238 0 7 0;
#X connect 239 0 7 0;
#X connect 240 0 7 0;
#X connect 241 0 7 0;
#X connect 242 0 32 0;
#X connect 243 0 32 0;
#X connect 244 0 32 0;
#X connect 245 0 32 0;
#X connect 246 0 32 0;
#X connect 247 0 32 0;
#X connect 248 0 155 0;
#X connect 249 0 155 0;
#X connect 250 0 249 0;
#X connect 250 1 248 0;
#X connect 253 0 2 0;
